<mxfile host="app.diagrams.net" modified="2023-11-26T19:07:22.576Z" agent="Mozilla/5.0 (Windows NT 10.0; Win64; x64) AppleWebKit/537.36 (KHTML, like Gecko) Chrome/119.0.0.0 Safari/537.36" etag="2HsjP6pWt3HE8imtg6uk" version="22.1.4" type="github">
  <diagram name="Страница — 1" id="3yKvK8DhuIjJ60HK1tVe">
    <mxGraphModel dx="1167" dy="628" grid="1" gridSize="10" guides="1" tooltips="1" connect="1" arrows="1" fold="1" page="1" pageScale="1" pageWidth="827" pageHeight="1169" math="0" shadow="0">
      <root>
        <mxCell id="0" />
        <mxCell id="1" parent="0" />
        <mxCell id="elkDZ7PoUnY8ohq0uWZe-15" value="" style="edgeStyle=orthogonalEdgeStyle;rounded=0;orthogonalLoop=1;jettySize=auto;html=1;" edge="1" parent="1" source="elkDZ7PoUnY8ohq0uWZe-1" target="elkDZ7PoUnY8ohq0uWZe-2">
          <mxGeometry relative="1" as="geometry" />
        </mxCell>
        <mxCell id="elkDZ7PoUnY8ohq0uWZe-1" value="Beginning" style="ellipse;whiteSpace=wrap;html=1;" vertex="1" parent="1">
          <mxGeometry x="340" y="40" width="120" height="40" as="geometry" />
        </mxCell>
        <mxCell id="elkDZ7PoUnY8ohq0uWZe-16" value="" style="edgeStyle=orthogonalEdgeStyle;rounded=0;orthogonalLoop=1;jettySize=auto;html=1;" edge="1" parent="1" source="elkDZ7PoUnY8ohq0uWZe-2" target="elkDZ7PoUnY8ohq0uWZe-3">
          <mxGeometry relative="1" as="geometry" />
        </mxCell>
        <mxCell id="elkDZ7PoUnY8ohq0uWZe-2" value="MyFunc(matrix, rows, columns)&lt;br&gt;answer=true&lt;br&gt;result" style="rounded=0;whiteSpace=wrap;html=1;" vertex="1" parent="1">
          <mxGeometry x="340" y="110" width="120" height="60" as="geometry" />
        </mxCell>
        <mxCell id="elkDZ7PoUnY8ohq0uWZe-17" value="" style="edgeStyle=orthogonalEdgeStyle;rounded=0;orthogonalLoop=1;jettySize=auto;html=1;" edge="1" parent="1" source="elkDZ7PoUnY8ohq0uWZe-3" target="elkDZ7PoUnY8ohq0uWZe-4">
          <mxGeometry relative="1" as="geometry" />
        </mxCell>
        <mxCell id="elkDZ7PoUnY8ohq0uWZe-47" value="" style="edgeStyle=orthogonalEdgeStyle;rounded=0;orthogonalLoop=1;jettySize=auto;html=1;" edge="1" parent="1" source="elkDZ7PoUnY8ohq0uWZe-3" target="elkDZ7PoUnY8ohq0uWZe-43">
          <mxGeometry relative="1" as="geometry" />
        </mxCell>
        <mxCell id="elkDZ7PoUnY8ohq0uWZe-3" value="if(column&amp;gt;1&lt;br&gt;and rows&amp;gt;1)" style="rhombus;whiteSpace=wrap;html=1;" vertex="1" parent="1">
          <mxGeometry x="360" y="200" width="80" height="80" as="geometry" />
        </mxCell>
        <mxCell id="elkDZ7PoUnY8ohq0uWZe-18" value="" style="edgeStyle=orthogonalEdgeStyle;rounded=0;orthogonalLoop=1;jettySize=auto;html=1;" edge="1" parent="1" source="elkDZ7PoUnY8ohq0uWZe-4" target="elkDZ7PoUnY8ohq0uWZe-5">
          <mxGeometry relative="1" as="geometry" />
        </mxCell>
        <mxCell id="elkDZ7PoUnY8ohq0uWZe-4" value="for(int i=0; i&amp;lt;rows-1; i++)" style="shape=hexagon;perimeter=hexagonPerimeter2;whiteSpace=wrap;html=1;fixedSize=1;" vertex="1" parent="1">
          <mxGeometry x="340" y="300" width="120" height="80" as="geometry" />
        </mxCell>
        <mxCell id="elkDZ7PoUnY8ohq0uWZe-19" value="" style="edgeStyle=orthogonalEdgeStyle;rounded=0;orthogonalLoop=1;jettySize=auto;html=1;" edge="1" parent="1" source="elkDZ7PoUnY8ohq0uWZe-5" target="elkDZ7PoUnY8ohq0uWZe-6">
          <mxGeometry relative="1" as="geometry" />
        </mxCell>
        <mxCell id="elkDZ7PoUnY8ohq0uWZe-5" value="result=0" style="rounded=0;whiteSpace=wrap;html=1;" vertex="1" parent="1">
          <mxGeometry x="340" y="410" width="120" height="60" as="geometry" />
        </mxCell>
        <mxCell id="elkDZ7PoUnY8ohq0uWZe-20" value="" style="edgeStyle=orthogonalEdgeStyle;rounded=0;orthogonalLoop=1;jettySize=auto;html=1;" edge="1" parent="1" source="elkDZ7PoUnY8ohq0uWZe-6" target="elkDZ7PoUnY8ohq0uWZe-9">
          <mxGeometry relative="1" as="geometry" />
        </mxCell>
        <mxCell id="elkDZ7PoUnY8ohq0uWZe-6" value="for(int j=0; j&amp;lt;columns; j++)" style="shape=hexagon;perimeter=hexagonPerimeter2;whiteSpace=wrap;html=1;fixedSize=1;" vertex="1" parent="1">
          <mxGeometry x="340" y="510" width="120" height="80" as="geometry" />
        </mxCell>
        <mxCell id="elkDZ7PoUnY8ohq0uWZe-7" value="if(result !=0)" style="rhombus;whiteSpace=wrap;html=1;" vertex="1" parent="1">
          <mxGeometry x="360" y="700" width="80" height="80" as="geometry" />
        </mxCell>
        <mxCell id="elkDZ7PoUnY8ohq0uWZe-8" value="answer=false" style="rounded=0;whiteSpace=wrap;html=1;" vertex="1" parent="1">
          <mxGeometry x="340" y="800" width="120" height="60" as="geometry" />
        </mxCell>
        <mxCell id="elkDZ7PoUnY8ohq0uWZe-9" value="result=result+matrix[i][j]*matrix[i+1][j]" style="rounded=0;whiteSpace=wrap;html=1;" vertex="1" parent="1">
          <mxGeometry x="340" y="620" width="120" height="60" as="geometry" />
        </mxCell>
        <mxCell id="elkDZ7PoUnY8ohq0uWZe-33" value="" style="edgeStyle=orthogonalEdgeStyle;rounded=0;orthogonalLoop=1;jettySize=auto;html=1;" edge="1" parent="1" source="elkDZ7PoUnY8ohq0uWZe-10" target="elkDZ7PoUnY8ohq0uWZe-11">
          <mxGeometry relative="1" as="geometry" />
        </mxCell>
        <mxCell id="elkDZ7PoUnY8ohq0uWZe-10" value="result=0" style="rounded=0;whiteSpace=wrap;html=1;" vertex="1" parent="1">
          <mxGeometry x="340" y="880" width="120" height="60" as="geometry" />
        </mxCell>
        <mxCell id="elkDZ7PoUnY8ohq0uWZe-11" value="for(int j=0; j&amp;lt;columns; j++)" style="shape=hexagon;perimeter=hexagonPerimeter2;whiteSpace=wrap;html=1;fixedSize=1;" vertex="1" parent="1">
          <mxGeometry x="340" y="970" width="120" height="80" as="geometry" />
        </mxCell>
        <mxCell id="elkDZ7PoUnY8ohq0uWZe-12" value="result=result+matrix[i][j]*matrix[i][j]" style="rounded=0;whiteSpace=wrap;html=1;" vertex="1" parent="1">
          <mxGeometry x="340" y="1070" width="120" height="60" as="geometry" />
        </mxCell>
        <mxCell id="elkDZ7PoUnY8ohq0uWZe-13" value="if(result!=1)" style="rhombus;whiteSpace=wrap;html=1;" vertex="1" parent="1">
          <mxGeometry x="360" y="1150" width="80" height="80" as="geometry" />
        </mxCell>
        <mxCell id="elkDZ7PoUnY8ohq0uWZe-14" value="answer=false" style="rounded=0;whiteSpace=wrap;html=1;" vertex="1" parent="1">
          <mxGeometry x="340" y="1240" width="120" height="60" as="geometry" />
        </mxCell>
        <mxCell id="elkDZ7PoUnY8ohq0uWZe-21" value="" style="endArrow=none;html=1;rounded=0;exitX=1;exitY=0.5;exitDx=0;exitDy=0;" edge="1" parent="1" source="elkDZ7PoUnY8ohq0uWZe-6">
          <mxGeometry width="50" height="50" relative="1" as="geometry">
            <mxPoint x="350" y="650" as="sourcePoint" />
            <mxPoint x="500" y="550" as="targetPoint" />
          </mxGeometry>
        </mxCell>
        <mxCell id="elkDZ7PoUnY8ohq0uWZe-23" value="" style="endArrow=none;html=1;rounded=0;" edge="1" parent="1">
          <mxGeometry width="50" height="50" relative="1" as="geometry">
            <mxPoint x="500" y="740" as="sourcePoint" />
            <mxPoint x="500" y="550" as="targetPoint" />
          </mxGeometry>
        </mxCell>
        <mxCell id="elkDZ7PoUnY8ohq0uWZe-24" value="" style="endArrow=classic;html=1;rounded=0;entryX=1;entryY=0.5;entryDx=0;entryDy=0;" edge="1" parent="1" target="elkDZ7PoUnY8ohq0uWZe-7">
          <mxGeometry width="50" height="50" relative="1" as="geometry">
            <mxPoint x="500" y="740" as="sourcePoint" />
            <mxPoint x="400" y="600" as="targetPoint" />
          </mxGeometry>
        </mxCell>
        <mxCell id="elkDZ7PoUnY8ohq0uWZe-25" value="" style="endArrow=none;html=1;rounded=0;exitX=0;exitY=0.5;exitDx=0;exitDy=0;" edge="1" parent="1" source="elkDZ7PoUnY8ohq0uWZe-9">
          <mxGeometry width="50" height="50" relative="1" as="geometry">
            <mxPoint x="350" y="650" as="sourcePoint" />
            <mxPoint x="310" y="650" as="targetPoint" />
          </mxGeometry>
        </mxCell>
        <mxCell id="elkDZ7PoUnY8ohq0uWZe-26" value="" style="endArrow=none;html=1;rounded=0;" edge="1" parent="1">
          <mxGeometry width="50" height="50" relative="1" as="geometry">
            <mxPoint x="310" y="650" as="sourcePoint" />
            <mxPoint x="310" y="550" as="targetPoint" />
          </mxGeometry>
        </mxCell>
        <mxCell id="elkDZ7PoUnY8ohq0uWZe-27" value="" style="endArrow=classic;html=1;rounded=0;entryX=0;entryY=0.5;entryDx=0;entryDy=0;" edge="1" parent="1" target="elkDZ7PoUnY8ohq0uWZe-6">
          <mxGeometry width="50" height="50" relative="1" as="geometry">
            <mxPoint x="310" y="550" as="sourcePoint" />
            <mxPoint x="400" y="600" as="targetPoint" />
          </mxGeometry>
        </mxCell>
        <mxCell id="elkDZ7PoUnY8ohq0uWZe-28" value="" style="endArrow=none;html=1;rounded=0;entryX=0;entryY=0.5;entryDx=0;entryDy=0;" edge="1" parent="1" target="elkDZ7PoUnY8ohq0uWZe-7">
          <mxGeometry width="50" height="50" relative="1" as="geometry">
            <mxPoint x="310" y="740" as="sourcePoint" />
            <mxPoint x="400" y="740" as="targetPoint" />
          </mxGeometry>
        </mxCell>
        <mxCell id="elkDZ7PoUnY8ohq0uWZe-29" value="" style="endArrow=none;html=1;rounded=0;" edge="1" parent="1">
          <mxGeometry width="50" height="50" relative="1" as="geometry">
            <mxPoint x="310" y="910" as="sourcePoint" />
            <mxPoint x="310" y="740" as="targetPoint" />
          </mxGeometry>
        </mxCell>
        <mxCell id="elkDZ7PoUnY8ohq0uWZe-30" value="" style="endArrow=classic;html=1;rounded=0;entryX=0;entryY=0.5;entryDx=0;entryDy=0;" edge="1" parent="1" target="elkDZ7PoUnY8ohq0uWZe-10">
          <mxGeometry width="50" height="50" relative="1" as="geometry">
            <mxPoint x="310" y="910" as="sourcePoint" />
            <mxPoint x="430" y="700" as="targetPoint" />
          </mxGeometry>
        </mxCell>
        <mxCell id="elkDZ7PoUnY8ohq0uWZe-32" value="" style="endArrow=classic;html=1;rounded=0;entryX=0.5;entryY=0;entryDx=0;entryDy=0;exitX=0.5;exitY=1;exitDx=0;exitDy=0;" edge="1" parent="1" source="elkDZ7PoUnY8ohq0uWZe-7" target="elkDZ7PoUnY8ohq0uWZe-8">
          <mxGeometry width="50" height="50" relative="1" as="geometry">
            <mxPoint x="380" y="750" as="sourcePoint" />
            <mxPoint x="430" y="700" as="targetPoint" />
          </mxGeometry>
        </mxCell>
        <mxCell id="elkDZ7PoUnY8ohq0uWZe-35" value="" style="endArrow=classic;html=1;rounded=0;exitX=0.5;exitY=1;exitDx=0;exitDy=0;entryX=0.5;entryY=0;entryDx=0;entryDy=0;" edge="1" parent="1" source="elkDZ7PoUnY8ohq0uWZe-11" target="elkDZ7PoUnY8ohq0uWZe-12">
          <mxGeometry width="50" height="50" relative="1" as="geometry">
            <mxPoint x="380" y="960" as="sourcePoint" />
            <mxPoint x="430" y="910" as="targetPoint" />
          </mxGeometry>
        </mxCell>
        <mxCell id="elkDZ7PoUnY8ohq0uWZe-36" value="" style="endArrow=none;html=1;rounded=0;exitX=0;exitY=0.5;exitDx=0;exitDy=0;" edge="1" parent="1">
          <mxGeometry width="50" height="50" relative="1" as="geometry">
            <mxPoint x="340" y="1110" as="sourcePoint" />
            <mxPoint x="310" y="1110" as="targetPoint" />
          </mxGeometry>
        </mxCell>
        <mxCell id="elkDZ7PoUnY8ohq0uWZe-37" value="" style="endArrow=none;html=1;rounded=0;" edge="1" parent="1">
          <mxGeometry width="50" height="50" relative="1" as="geometry">
            <mxPoint x="310" y="1110" as="sourcePoint" />
            <mxPoint x="310" y="1010" as="targetPoint" />
          </mxGeometry>
        </mxCell>
        <mxCell id="elkDZ7PoUnY8ohq0uWZe-38" value="" style="endArrow=classic;html=1;rounded=0;entryX=0;entryY=0.5;entryDx=0;entryDy=0;" edge="1" parent="1">
          <mxGeometry width="50" height="50" relative="1" as="geometry">
            <mxPoint x="310" y="1010" as="sourcePoint" />
            <mxPoint x="340" y="1010" as="targetPoint" />
          </mxGeometry>
        </mxCell>
        <mxCell id="elkDZ7PoUnY8ohq0uWZe-39" value="" style="endArrow=none;html=1;rounded=0;entryX=1;entryY=0.5;entryDx=0;entryDy=0;" edge="1" parent="1" target="elkDZ7PoUnY8ohq0uWZe-11">
          <mxGeometry width="50" height="50" relative="1" as="geometry">
            <mxPoint x="500" y="1010" as="sourcePoint" />
            <mxPoint x="430" y="970" as="targetPoint" />
          </mxGeometry>
        </mxCell>
        <mxCell id="elkDZ7PoUnY8ohq0uWZe-40" value="" style="endArrow=none;html=1;rounded=0;" edge="1" parent="1">
          <mxGeometry width="50" height="50" relative="1" as="geometry">
            <mxPoint x="500" y="1190" as="sourcePoint" />
            <mxPoint x="500" y="1010" as="targetPoint" />
          </mxGeometry>
        </mxCell>
        <mxCell id="elkDZ7PoUnY8ohq0uWZe-41" value="" style="endArrow=classic;html=1;rounded=0;entryX=1;entryY=0.5;entryDx=0;entryDy=0;" edge="1" parent="1" target="elkDZ7PoUnY8ohq0uWZe-13">
          <mxGeometry width="50" height="50" relative="1" as="geometry">
            <mxPoint x="500" y="1190" as="sourcePoint" />
            <mxPoint x="430" y="970" as="targetPoint" />
          </mxGeometry>
        </mxCell>
        <mxCell id="elkDZ7PoUnY8ohq0uWZe-42" value="" style="endArrow=classic;html=1;rounded=0;entryX=0.5;entryY=0;entryDx=0;entryDy=0;exitX=0.5;exitY=1;exitDx=0;exitDy=0;" edge="1" parent="1" source="elkDZ7PoUnY8ohq0uWZe-13" target="elkDZ7PoUnY8ohq0uWZe-14">
          <mxGeometry width="50" height="50" relative="1" as="geometry">
            <mxPoint x="380" y="1170" as="sourcePoint" />
            <mxPoint x="430" y="1120" as="targetPoint" />
          </mxGeometry>
        </mxCell>
        <mxCell id="elkDZ7PoUnY8ohq0uWZe-43" value="answer=false" style="rounded=0;whiteSpace=wrap;html=1;" vertex="1" parent="1">
          <mxGeometry x="170" y="210" width="120" height="60" as="geometry" />
        </mxCell>
        <mxCell id="elkDZ7PoUnY8ohq0uWZe-59" value="" style="edgeStyle=orthogonalEdgeStyle;rounded=0;orthogonalLoop=1;jettySize=auto;html=1;" edge="1" parent="1" source="elkDZ7PoUnY8ohq0uWZe-44" target="elkDZ7PoUnY8ohq0uWZe-56">
          <mxGeometry relative="1" as="geometry" />
        </mxCell>
        <mxCell id="elkDZ7PoUnY8ohq0uWZe-44" value="Input rows, &lt;br&gt;columns" style="shape=parallelogram;perimeter=parallelogramPerimeter;whiteSpace=wrap;html=1;fixedSize=1;" vertex="1" parent="1">
          <mxGeometry x="340" y="1330" width="120" height="60" as="geometry" />
        </mxCell>
        <mxCell id="elkDZ7PoUnY8ohq0uWZe-45" value="" style="endArrow=none;html=1;rounded=0;entryX=0.5;entryY=1;entryDx=0;entryDy=0;" edge="1" parent="1" target="elkDZ7PoUnY8ohq0uWZe-43">
          <mxGeometry width="50" height="50" relative="1" as="geometry">
            <mxPoint x="230" y="1360.7999267578125" as="sourcePoint" />
            <mxPoint x="430" y="330" as="targetPoint" />
          </mxGeometry>
        </mxCell>
        <mxCell id="elkDZ7PoUnY8ohq0uWZe-46" value="" style="endArrow=classic;html=1;rounded=0;entryX=0;entryY=0.5;entryDx=0;entryDy=0;" edge="1" parent="1" target="elkDZ7PoUnY8ohq0uWZe-44">
          <mxGeometry width="50" height="50" relative="1" as="geometry">
            <mxPoint x="230" y="1360" as="sourcePoint" />
            <mxPoint x="430" y="1280" as="targetPoint" />
          </mxGeometry>
        </mxCell>
        <mxCell id="elkDZ7PoUnY8ohq0uWZe-48" value="" style="endArrow=none;html=1;rounded=0;" edge="1" parent="1">
          <mxGeometry width="50" height="50" relative="1" as="geometry">
            <mxPoint x="230" y="320" as="sourcePoint" />
            <mxPoint x="350" y="320" as="targetPoint" />
            <Array as="points">
              <mxPoint x="290" y="320" />
            </Array>
          </mxGeometry>
        </mxCell>
        <mxCell id="elkDZ7PoUnY8ohq0uWZe-49" value="" style="endArrow=none;html=1;rounded=0;entryX=1;entryY=0.5;entryDx=0;entryDy=0;" edge="1" parent="1" target="elkDZ7PoUnY8ohq0uWZe-8">
          <mxGeometry width="50" height="50" relative="1" as="geometry">
            <mxPoint x="530" y="830" as="sourcePoint" />
            <mxPoint x="430" y="910" as="targetPoint" />
          </mxGeometry>
        </mxCell>
        <mxCell id="elkDZ7PoUnY8ohq0uWZe-50" value="" style="endArrow=none;html=1;rounded=0;" edge="1" parent="1">
          <mxGeometry width="50" height="50" relative="1" as="geometry">
            <mxPoint x="530" y="1361.5999755859375" as="sourcePoint" />
            <mxPoint x="530" y="830" as="targetPoint" />
          </mxGeometry>
        </mxCell>
        <mxCell id="elkDZ7PoUnY8ohq0uWZe-51" value="" style="endArrow=classic;html=1;rounded=0;entryX=1;entryY=0.5;entryDx=0;entryDy=0;" edge="1" parent="1" target="elkDZ7PoUnY8ohq0uWZe-44">
          <mxGeometry width="50" height="50" relative="1" as="geometry">
            <mxPoint x="530" y="1360" as="sourcePoint" />
            <mxPoint x="430" y="1220" as="targetPoint" />
          </mxGeometry>
        </mxCell>
        <mxCell id="elkDZ7PoUnY8ohq0uWZe-52" value="" style="endArrow=none;html=1;rounded=0;entryX=0;entryY=0.5;entryDx=0;entryDy=0;" edge="1" parent="1" target="elkDZ7PoUnY8ohq0uWZe-14">
          <mxGeometry width="50" height="50" relative="1" as="geometry">
            <mxPoint x="230" y="1269.5" as="sourcePoint" />
            <mxPoint x="360" y="1269.5" as="targetPoint" />
          </mxGeometry>
        </mxCell>
        <mxCell id="elkDZ7PoUnY8ohq0uWZe-53" value="" style="endArrow=none;html=1;rounded=0;exitX=0;exitY=0.5;exitDx=0;exitDy=0;" edge="1" parent="1" source="elkDZ7PoUnY8ohq0uWZe-13">
          <mxGeometry width="50" height="50" relative="1" as="geometry">
            <mxPoint x="380" y="1190" as="sourcePoint" />
            <mxPoint x="260" y="1190" as="targetPoint" />
          </mxGeometry>
        </mxCell>
        <mxCell id="elkDZ7PoUnY8ohq0uWZe-54" value="" style="endArrow=none;html=1;rounded=0;" edge="1" parent="1">
          <mxGeometry width="50" height="50" relative="1" as="geometry">
            <mxPoint x="260" y="1190" as="sourcePoint" />
            <mxPoint x="260" y="360" as="targetPoint" />
          </mxGeometry>
        </mxCell>
        <mxCell id="elkDZ7PoUnY8ohq0uWZe-55" value="" style="endArrow=classic;html=1;rounded=0;entryX=0;entryY=0.75;entryDx=0;entryDy=0;" edge="1" parent="1" target="elkDZ7PoUnY8ohq0uWZe-4">
          <mxGeometry width="50" height="50" relative="1" as="geometry">
            <mxPoint x="260" y="357" as="sourcePoint" />
            <mxPoint x="520" y="450" as="targetPoint" />
          </mxGeometry>
        </mxCell>
        <mxCell id="elkDZ7PoUnY8ohq0uWZe-60" value="" style="edgeStyle=orthogonalEdgeStyle;rounded=0;orthogonalLoop=1;jettySize=auto;html=1;" edge="1" parent="1" source="elkDZ7PoUnY8ohq0uWZe-56" target="elkDZ7PoUnY8ohq0uWZe-57">
          <mxGeometry relative="1" as="geometry" />
        </mxCell>
        <mxCell id="elkDZ7PoUnY8ohq0uWZe-56" value="for(int i=0; i&amp;lt;rows; i++)" style="shape=hexagon;perimeter=hexagonPerimeter2;whiteSpace=wrap;html=1;fixedSize=1;" vertex="1" parent="1">
          <mxGeometry x="340" y="1420" width="120" height="80" as="geometry" />
        </mxCell>
        <mxCell id="elkDZ7PoUnY8ohq0uWZe-61" value="" style="edgeStyle=orthogonalEdgeStyle;rounded=0;orthogonalLoop=1;jettySize=auto;html=1;" edge="1" parent="1" source="elkDZ7PoUnY8ohq0uWZe-57" target="elkDZ7PoUnY8ohq0uWZe-58">
          <mxGeometry relative="1" as="geometry" />
        </mxCell>
        <mxCell id="elkDZ7PoUnY8ohq0uWZe-57" value="for(int j=0; j&amp;lt;columns; j++)" style="shape=hexagon;perimeter=hexagonPerimeter2;whiteSpace=wrap;html=1;fixedSize=1;" vertex="1" parent="1">
          <mxGeometry x="340" y="1520" width="120" height="80" as="geometry" />
        </mxCell>
        <mxCell id="elkDZ7PoUnY8ohq0uWZe-58" value="Input matrix[i][j]" style="shape=parallelogram;perimeter=parallelogramPerimeter;whiteSpace=wrap;html=1;fixedSize=1;" vertex="1" parent="1">
          <mxGeometry x="340" y="1630" width="120" height="60" as="geometry" />
        </mxCell>
        <mxCell id="elkDZ7PoUnY8ohq0uWZe-62" value="" style="endArrow=none;html=1;rounded=0;exitX=1;exitY=0.5;exitDx=0;exitDy=0;" edge="1" parent="1" source="elkDZ7PoUnY8ohq0uWZe-58">
          <mxGeometry width="50" height="50" relative="1" as="geometry">
            <mxPoint x="470" y="1600" as="sourcePoint" />
            <mxPoint x="500" y="1660" as="targetPoint" />
          </mxGeometry>
        </mxCell>
        <mxCell id="elkDZ7PoUnY8ohq0uWZe-63" value="" style="endArrow=none;html=1;rounded=0;" edge="1" parent="1">
          <mxGeometry width="50" height="50" relative="1" as="geometry">
            <mxPoint x="500" y="1660" as="sourcePoint" />
            <mxPoint x="500" y="1560" as="targetPoint" />
          </mxGeometry>
        </mxCell>
        <mxCell id="elkDZ7PoUnY8ohq0uWZe-64" value="" style="endArrow=classic;html=1;rounded=0;entryX=1;entryY=0.5;entryDx=0;entryDy=0;" edge="1" parent="1">
          <mxGeometry width="50" height="50" relative="1" as="geometry">
            <mxPoint x="500" y="1559.5" as="sourcePoint" />
            <mxPoint x="460" y="1559.5" as="targetPoint" />
          </mxGeometry>
        </mxCell>
        <mxCell id="elkDZ7PoUnY8ohq0uWZe-65" value="" style="endArrow=none;html=1;rounded=0;exitX=0;exitY=0.5;exitDx=0;exitDy=0;" edge="1" parent="1" source="elkDZ7PoUnY8ohq0uWZe-57">
          <mxGeometry width="50" height="50" relative="1" as="geometry">
            <mxPoint x="470" y="1600" as="sourcePoint" />
            <mxPoint x="300" y="1560" as="targetPoint" />
          </mxGeometry>
        </mxCell>
        <mxCell id="elkDZ7PoUnY8ohq0uWZe-66" value="" style="endArrow=none;html=1;rounded=0;" edge="1" parent="1">
          <mxGeometry width="50" height="50" relative="1" as="geometry">
            <mxPoint x="300" y="1560" as="sourcePoint" />
            <mxPoint x="300" y="1460" as="targetPoint" />
          </mxGeometry>
        </mxCell>
        <mxCell id="elkDZ7PoUnY8ohq0uWZe-67" value="" style="endArrow=classic;html=1;rounded=0;entryX=0;entryY=0.5;entryDx=0;entryDy=0;" edge="1" parent="1" target="elkDZ7PoUnY8ohq0uWZe-56">
          <mxGeometry width="50" height="50" relative="1" as="geometry">
            <mxPoint x="300" y="1460" as="sourcePoint" />
            <mxPoint x="520" y="1550" as="targetPoint" />
          </mxGeometry>
        </mxCell>
        <mxCell id="elkDZ7PoUnY8ohq0uWZe-68" value="" style="endArrow=none;html=1;rounded=0;exitX=1.023;exitY=0.413;exitDx=0;exitDy=0;exitPerimeter=0;" edge="1" parent="1">
          <mxGeometry width="50" height="50" relative="1" as="geometry">
            <mxPoint x="460" y="1460.04" as="sourcePoint" />
            <mxPoint x="527.24" y="1460" as="targetPoint" />
          </mxGeometry>
        </mxCell>
        <mxCell id="elkDZ7PoUnY8ohq0uWZe-84" value="" style="edgeStyle=orthogonalEdgeStyle;rounded=0;orthogonalLoop=1;jettySize=auto;html=1;" edge="1" parent="1" source="elkDZ7PoUnY8ohq0uWZe-71" target="elkDZ7PoUnY8ohq0uWZe-74">
          <mxGeometry relative="1" as="geometry" />
        </mxCell>
        <mxCell id="elkDZ7PoUnY8ohq0uWZe-71" value="answer= MyFunc(matrix, rows, columns)" style="rounded=0;whiteSpace=wrap;html=1;" vertex="1" parent="1">
          <mxGeometry x="340" y="1710" width="120" height="60" as="geometry" />
        </mxCell>
        <mxCell id="elkDZ7PoUnY8ohq0uWZe-72" value="" style="endArrow=none;html=1;rounded=0;" edge="1" parent="1">
          <mxGeometry width="50" height="50" relative="1" as="geometry">
            <mxPoint x="530" y="1740" as="sourcePoint" />
            <mxPoint x="530" y="1460" as="targetPoint" />
          </mxGeometry>
        </mxCell>
        <mxCell id="elkDZ7PoUnY8ohq0uWZe-73" value="" style="endArrow=classic;html=1;rounded=0;entryX=1;entryY=0.5;entryDx=0;entryDy=0;" edge="1" parent="1" target="elkDZ7PoUnY8ohq0uWZe-71">
          <mxGeometry width="50" height="50" relative="1" as="geometry">
            <mxPoint x="530" y="1740" as="sourcePoint" />
            <mxPoint x="520" y="1550" as="targetPoint" />
          </mxGeometry>
        </mxCell>
        <mxCell id="elkDZ7PoUnY8ohq0uWZe-85" value="" style="edgeStyle=orthogonalEdgeStyle;rounded=0;orthogonalLoop=1;jettySize=auto;html=1;" edge="1" parent="1" source="elkDZ7PoUnY8ohq0uWZe-74" target="elkDZ7PoUnY8ohq0uWZe-75">
          <mxGeometry relative="1" as="geometry" />
        </mxCell>
        <mxCell id="elkDZ7PoUnY8ohq0uWZe-74" value="if(answer=true)" style="rhombus;whiteSpace=wrap;html=1;" vertex="1" parent="1">
          <mxGeometry x="360" y="1790" width="80" height="80" as="geometry" />
        </mxCell>
        <mxCell id="elkDZ7PoUnY8ohq0uWZe-75" value="Output Your matrix is orthonormal" style="shape=parallelogram;perimeter=parallelogramPerimeter;whiteSpace=wrap;html=1;fixedSize=1;" vertex="1" parent="1">
          <mxGeometry x="460" y="1800" width="120" height="60" as="geometry" />
        </mxCell>
        <mxCell id="elkDZ7PoUnY8ohq0uWZe-82" value="Output Your matrix isn`t orthonormal" style="shape=parallelogram;perimeter=parallelogramPerimeter;whiteSpace=wrap;html=1;fixedSize=1;" vertex="1" parent="1">
          <mxGeometry x="230" y="1800" width="120" height="60" as="geometry" />
        </mxCell>
        <mxCell id="elkDZ7PoUnY8ohq0uWZe-83" value="End" style="ellipse;whiteSpace=wrap;html=1;" vertex="1" parent="1">
          <mxGeometry x="340" y="1890" width="120" height="40" as="geometry" />
        </mxCell>
        <mxCell id="elkDZ7PoUnY8ohq0uWZe-86" value="" style="endArrow=classic;html=1;rounded=0;entryX=1;entryY=0.5;entryDx=0;entryDy=0;exitX=0;exitY=0.5;exitDx=0;exitDy=0;" edge="1" parent="1" source="elkDZ7PoUnY8ohq0uWZe-74" target="elkDZ7PoUnY8ohq0uWZe-82">
          <mxGeometry width="50" height="50" relative="1" as="geometry">
            <mxPoint x="470" y="1760" as="sourcePoint" />
            <mxPoint x="520" y="1710" as="targetPoint" />
          </mxGeometry>
        </mxCell>
        <mxCell id="elkDZ7PoUnY8ohq0uWZe-87" value="" style="endArrow=none;html=1;rounded=0;exitX=0.5;exitY=1;exitDx=0;exitDy=0;" edge="1" parent="1" source="elkDZ7PoUnY8ohq0uWZe-75">
          <mxGeometry width="50" height="50" relative="1" as="geometry">
            <mxPoint x="470" y="1760" as="sourcePoint" />
            <mxPoint x="520" y="1910" as="targetPoint" />
          </mxGeometry>
        </mxCell>
        <mxCell id="elkDZ7PoUnY8ohq0uWZe-88" value="" style="endArrow=classic;html=1;rounded=0;entryX=1;entryY=0.5;entryDx=0;entryDy=0;" edge="1" parent="1" target="elkDZ7PoUnY8ohq0uWZe-83">
          <mxGeometry width="50" height="50" relative="1" as="geometry">
            <mxPoint x="520" y="1910" as="sourcePoint" />
            <mxPoint x="520" y="1710" as="targetPoint" />
          </mxGeometry>
        </mxCell>
        <mxCell id="elkDZ7PoUnY8ohq0uWZe-89" value="" style="endArrow=none;html=1;rounded=0;entryX=0.5;entryY=1;entryDx=0;entryDy=0;" edge="1" parent="1" target="elkDZ7PoUnY8ohq0uWZe-82">
          <mxGeometry width="50" height="50" relative="1" as="geometry">
            <mxPoint x="290" y="1910" as="sourcePoint" />
            <mxPoint x="520" y="1710" as="targetPoint" />
          </mxGeometry>
        </mxCell>
        <mxCell id="elkDZ7PoUnY8ohq0uWZe-90" value="" style="endArrow=classic;html=1;rounded=0;entryX=0;entryY=0.5;entryDx=0;entryDy=0;" edge="1" parent="1" target="elkDZ7PoUnY8ohq0uWZe-83">
          <mxGeometry width="50" height="50" relative="1" as="geometry">
            <mxPoint x="290" y="1910" as="sourcePoint" />
            <mxPoint x="520" y="1710" as="targetPoint" />
          </mxGeometry>
        </mxCell>
        <mxCell id="elkDZ7PoUnY8ohq0uWZe-91" value="True" style="text;html=1;strokeColor=none;fillColor=none;align=center;verticalAlign=middle;whiteSpace=wrap;rounded=0;" vertex="1" parent="1">
          <mxGeometry x="400" y="270" width="60" height="30" as="geometry" />
        </mxCell>
        <mxCell id="elkDZ7PoUnY8ohq0uWZe-92" value="True" style="text;html=1;strokeColor=none;fillColor=none;align=center;verticalAlign=middle;whiteSpace=wrap;rounded=0;" vertex="1" parent="1">
          <mxGeometry x="400" y="380" width="60" height="30" as="geometry" />
        </mxCell>
        <mxCell id="elkDZ7PoUnY8ohq0uWZe-93" value="True" style="text;html=1;strokeColor=none;fillColor=none;align=center;verticalAlign=middle;whiteSpace=wrap;rounded=0;" vertex="1" parent="1">
          <mxGeometry x="400" y="585" width="60" height="30" as="geometry" />
        </mxCell>
        <mxCell id="elkDZ7PoUnY8ohq0uWZe-94" value="True" style="text;html=1;strokeColor=none;fillColor=none;align=center;verticalAlign=middle;whiteSpace=wrap;rounded=0;" vertex="1" parent="1">
          <mxGeometry x="400" y="770" width="60" height="30" as="geometry" />
        </mxCell>
        <mxCell id="elkDZ7PoUnY8ohq0uWZe-95" value="True" style="text;html=1;strokeColor=none;fillColor=none;align=center;verticalAlign=middle;whiteSpace=wrap;rounded=0;" vertex="1" parent="1">
          <mxGeometry x="400" y="1040" width="60" height="30" as="geometry" />
        </mxCell>
        <mxCell id="elkDZ7PoUnY8ohq0uWZe-96" value="True" style="text;html=1;strokeColor=none;fillColor=none;align=center;verticalAlign=middle;whiteSpace=wrap;rounded=0;" vertex="1" parent="1">
          <mxGeometry x="400" y="1210" width="60" height="30" as="geometry" />
        </mxCell>
        <mxCell id="elkDZ7PoUnY8ohq0uWZe-97" value="True" style="text;html=1;strokeColor=none;fillColor=none;align=center;verticalAlign=middle;whiteSpace=wrap;rounded=0;" vertex="1" parent="1">
          <mxGeometry x="400" y="1490" width="60" height="30" as="geometry" />
        </mxCell>
        <mxCell id="elkDZ7PoUnY8ohq0uWZe-98" value="True" style="text;html=1;strokeColor=none;fillColor=none;align=center;verticalAlign=middle;whiteSpace=wrap;rounded=0;" vertex="1" parent="1">
          <mxGeometry x="400" y="1600" width="60" height="30" as="geometry" />
        </mxCell>
        <mxCell id="elkDZ7PoUnY8ohq0uWZe-99" value="True" style="text;html=1;strokeColor=none;fillColor=none;align=center;verticalAlign=middle;whiteSpace=wrap;rounded=0;" vertex="1" parent="1">
          <mxGeometry x="420" y="1800" width="60" height="30" as="geometry" />
        </mxCell>
        <mxCell id="elkDZ7PoUnY8ohq0uWZe-100" value="False" style="text;html=1;strokeColor=none;fillColor=none;align=center;verticalAlign=middle;whiteSpace=wrap;rounded=0;" vertex="1" parent="1">
          <mxGeometry x="310" y="210" width="60" height="30" as="geometry" />
        </mxCell>
        <mxCell id="elkDZ7PoUnY8ohq0uWZe-101" value="False" style="text;html=1;strokeColor=none;fillColor=none;align=center;verticalAlign=middle;whiteSpace=wrap;rounded=0;" vertex="1" parent="1">
          <mxGeometry x="300" y="290" width="60" height="30" as="geometry" />
        </mxCell>
        <mxCell id="elkDZ7PoUnY8ohq0uWZe-102" value="False" style="text;html=1;strokeColor=none;fillColor=none;align=center;verticalAlign=middle;whiteSpace=wrap;rounded=0;" vertex="1" parent="1">
          <mxGeometry x="450" y="520" width="60" height="30" as="geometry" />
        </mxCell>
        <mxCell id="elkDZ7PoUnY8ohq0uWZe-103" value="False" style="text;html=1;strokeColor=none;fillColor=none;align=center;verticalAlign=middle;whiteSpace=wrap;rounded=0;" vertex="1" parent="1">
          <mxGeometry x="310" y="710" width="60" height="30" as="geometry" />
        </mxCell>
        <mxCell id="elkDZ7PoUnY8ohq0uWZe-104" value="False" style="text;html=1;strokeColor=none;fillColor=none;align=center;verticalAlign=middle;whiteSpace=wrap;rounded=0;" vertex="1" parent="1">
          <mxGeometry x="450" y="980" width="60" height="30" as="geometry" />
        </mxCell>
        <mxCell id="elkDZ7PoUnY8ohq0uWZe-105" value="False" style="text;html=1;strokeColor=none;fillColor=none;align=center;verticalAlign=middle;whiteSpace=wrap;rounded=0;" vertex="1" parent="1">
          <mxGeometry x="310" y="1160" width="60" height="30" as="geometry" />
        </mxCell>
        <mxCell id="elkDZ7PoUnY8ohq0uWZe-106" value="False" style="text;html=1;strokeColor=none;fillColor=none;align=center;verticalAlign=middle;whiteSpace=wrap;rounded=0;" vertex="1" parent="1">
          <mxGeometry x="450" y="1430" width="60" height="30" as="geometry" />
        </mxCell>
        <mxCell id="elkDZ7PoUnY8ohq0uWZe-107" value="False" style="text;html=1;strokeColor=none;fillColor=none;align=center;verticalAlign=middle;whiteSpace=wrap;rounded=0;" vertex="1" parent="1">
          <mxGeometry x="340" y="1790" width="60" height="30" as="geometry" />
        </mxCell>
      </root>
    </mxGraphModel>
  </diagram>
</mxfile>
